<?xml version="1.0" encoding="UTF-8"?>
<svg id="Capa_1" data-name="Capa 1" xmlns="http://www.w3.org/2000/svg" viewBox="0 0 500 500">
  <defs>
    <style>
      .cls-1 {
        fill: #333;
      }

      .cls-1, .cls-2 {
        stroke-width: 0px;
      }

      .cls-2 {
        fill: #f2f2f2;
      }
    </style>
  </defs>
  <rect class="cls-1" width="500" height="500" rx="40" ry="40"/>
  <rect class="cls-2" x="65" y="65" width="180" height="180" rx="20" ry="20"/>
  <rect class="cls-2" x="255" y="65" width="180" height="180" rx="20" ry="20"/>
  <rect class="cls-2" x="65" y="255" width="180" height="180" rx="20" ry="20"/>
  <rect class="cls-2" x="255" y="255" width="180" height="180" rx="20" ry="20"/>
  <path class="cls-1" d="M155.35,211.34c-7.96,0-15.18-2.15-21.64-6.46-6.46-4.31-11.55-10.33-15.25-18.06-3.7-7.73-5.55-16.65-5.55-26.77s1.83-19.13,5.48-26.77c3.65-7.63,8.66-13.58,15.04-17.85,6.37-4.26,13.58-6.39,21.64-6.39s15.41,2.13,21.78,6.39c6.37,4.26,11.4,10.24,15.11,17.92,3.7,7.68,5.55,16.63,5.55,26.84s-1.85,19.16-5.55,26.84c-3.7,7.68-8.71,13.65-15.04,17.92-6.32,4.26-13.51,6.39-21.57,6.39ZM155.21,191.81c4.12,0,7.68-1.19,10.68-3.58,3-2.39,5.32-5.95,6.96-10.68,1.64-4.73,2.46-10.52,2.46-17.35s-.82-12.74-2.46-17.42c-1.64-4.68-3.96-8.22-6.96-10.61-3-2.39-6.6-3.58-10.82-3.58s-7.57,1.17-10.61,3.51c-3.04,2.34-5.36,5.86-6.96,10.54-1.59,4.69-2.39,10.49-2.39,17.42s.79,12.74,2.39,17.42c1.59,4.69,3.91,8.24,6.96,10.68,3.04,2.44,6.63,3.65,10.75,3.65Z"/>
  <path class="cls-1" d="M122.3,353.71v-17.85h65.34v17.85h-65.34ZM145.91,310.43h18.27v68.43h-18.27v-68.43Z"/>
  <path class="cls-1" d="M312.3,337.13v-17.85h65.34v17.85h-65.34ZM312.3,370.86v-17.85h65.34v17.85h-65.34Z"/>
  <path class="cls-1" d="M324.23,129.28v-18.69h39.63v18.69h-39.63ZM343.34,209.79v-99.21h21.92v99.21h-21.92Z"/>
</svg>